HIERARCHY
ROOT Hips
{
  OFFSET -63.3545 39.7034 24.3052
  CHANNELS 6 Xposition Yposition Zposition Zrotation Xrotation Yrotation
  JOINT Chest
  {
    OFFSET 2.13163e-014 4.57 7.10543e-014
    CHANNELS 6 Xposition Yposition Zposition Zrotation Xrotation Yrotation
    JOINT Chest2
    {
      OFFSET 1.06581e-014 6.57 -5.77316e-015
      CHANNELS 6 Xposition Yposition Zposition Zrotation Xrotation Yrotation
      JOINT LeftCollar
      {
        OFFSET 1.06 4.19 1.76
        CHANNELS 6 Xposition Yposition Zposition Zrotation Xrotation Yrotation
        JOINT LeftShoulder
        {
          OFFSET 5.81 4.26326e-014 -1.93842e-022
          CHANNELS 6 Xposition Yposition Zposition Zrotation Xrotation Yrotation
          JOINT LeftElbow
          {
            OFFSET -2.13163e-014 -12.08 7.10543e-015
            CHANNELS 6 Xposition Yposition Zposition Zrotation Xrotation Yrotation
            JOINT LeftWrist
            {
              OFFSET 1.42109e-013 -9.82 7.10543e-015
              CHANNELS 6 Xposition Yposition Zposition Zrotation Xrotation Yrotation
              End Site
              {
                OFFSET 0 -7.37 0
              }
            }
          }
        }
      }
      JOINT RightCollar
      {
        OFFSET -1.06 4.19 1.76
        CHANNELS 6 Xposition Yposition Zposition Zrotation Xrotation Yrotation
        JOINT RightShoulder
        {
          OFFSET -6.06 1.42109e-014 -4.26326e-014
          CHANNELS 6 Xposition Yposition Zposition Zrotation Xrotation Yrotation
          JOINT RightElbow
          {
            OFFSET -2.13163e-014 -11.08 -2.30766e-024
            CHANNELS 6 Xposition Yposition Zposition Zrotation Xrotation Yrotation
            JOINT RightWrist
            {
              OFFSET 1.42109e-014 -9.82 9.76996e-015
              CHANNELS 6 Xposition Yposition Zposition Zrotation Xrotation Yrotation
              End Site
              {
                OFFSET 0 -7.14001 0
              }
            }
          }
        }
      }
      JOINT Neck
      {
        OFFSET -1.77636e-014 4.05 -4.61853e-014
        CHANNELS 6 Xposition Yposition Zposition Zrotation Xrotation Yrotation
        JOINT Head
        {
          OFFSET -3.55271e-015 5.19 -7.10543e-015
          CHANNELS 6 Xposition Yposition Zposition Zrotation Xrotation Yrotation
          End Site
          {
            OFFSET 0 4.14001 0
          }
        }
      }
    }
  }
  JOINT LeftHip
  {
    OFFSET 3.43 -6.39488e-014 2.84217e-013
    CHANNELS 6 Xposition Yposition Zposition Zrotation Xrotation Yrotation
    JOINT LeftKnee
    {
      OFFSET -3.55271e-015 -18.47 -2.06057e-013
      CHANNELS 6 Xposition Yposition Zposition Zrotation Xrotation Yrotation
      JOINT LeftAnkle
      {
        OFFSET 4.44089e-014 -17.95 1.42109e-014
        CHANNELS 6 Xposition Yposition Zposition Zrotation Xrotation Yrotation
        End Site
        {
          OFFSET 0 -3.12 0
        }
      }
    }
  }
  JOINT RightHip
  {
    OFFSET -3.43 1.27898e-013 -5.68434e-014
    CHANNELS 6 Xposition Yposition Zposition Zrotation Xrotation Yrotation
    JOINT RightKnee
    {
      OFFSET 8.61607e-025 -18.47 -9.9476e-014
      CHANNELS 6 Xposition Yposition Zposition Zrotation Xrotation Yrotation
      JOINT RightAnkle
      {
        OFFSET 3.55271e-015 -17.95 5.68434e-014
        CHANNELS 6 Xposition Yposition Zposition Zrotation Xrotation Yrotation
        End Site
        {
          OFFSET 0 -3.12 0
        }
      }
    }
  }
}
MOTION
Frames:	11
Frame Time:	0.0333333
-68.8408 37.3591 23.7347 5.30347 -3.26662 95.4504 2.13163e-014 4.57 5.15143e-014 -0.38068 11.4941 -3.11929 1.06581e-014 6.57 -5.77316e-015 -0.147658 10.405 -3.02983 1.06 4.19 1.76 7.76359 0.273416 -1.17289 5.81 6.08579e-012 1.1724e-013 115.275 -45.5284 57.3865 -1.94907e-012 -12.08 -1.80654e-013 -8.98775 -3.88156 -29.1579 1.42109e-013 -9.82 1.28907e-011 5.28297 -9.84653 0.455357 -1.06 4.19 1.76 -1.66044 0.488153 3.14644 -6.06 4.23909e-012 -1.74227e-012 -115.797 -44.4866 -53.8226 1.44763e-012 -11.08 -4.88498e-014 4.9857 -3.10563 22.0353 1.42109e-014 -9.82 9.76996e-015 -8.33787 -9.85641 -0.720164 -8.56765e-012 4.05 -4.61853e-014 2.10568 6.05221 -2.55395 -3.55271e-015 5.19 -7.10543e-015 -3.58933 5.3717 -0.666027 3.43 7.44245e-013 -7.89736e-013 1.46625 -19.1775 6.92384 3.07645e-012 -18.47 -5.84189e-014 1.28666 49.9905 2.7672 -2.69467e-012 -17.95 1.40921e-013 11.8169 -26.2883 2.76835 -3.43 -4.93006e-013 4.27214e-014 -1.83308 -34.8524 -2.31598 -2.85526e-013 -18.47 1.52825e-013 -2.50761 35.2404 -2.7532 -2.31883e-012 -17.95 1.49091e-013 1.11263 2.16718 -0.0225206 
-68.2919 37.147 23.6815 5.85619 -2.90981 95.9963 2.13163e-014 4.57 2.02505e-013 -0.352316 11.3903 -3.46241 1.06581e-014 6.57 -5.77316e-015 -0.0982339 10.303 -3.34779 1.06 4.19 1.76 7.70526 0.268691 -1.27319 5.81 6.05759e-012 4.85676e-014 115.389 -45.5798 57.6994 -1.89777e-012 -12.08 -2.35712e-013 -8.97437 -3.93319 -29.0627 1.42109e-013 -9.82 1.28503e-011 5.10811 -9.78679 0.437727 -1.06 4.19 1.76 -1.76604 0.48244 3.1277 -6.06 4.24748e-012 -1.74653e-012 -115.384 -44.5523 -53.644 1.48287e-012 -11.08 3.25994e-014 4.93963 -3.15284 21.9174 1.42109e-014 -9.82 9.76996e-015 -8.30352 -9.77657 -0.711403 -8.57286e-012 4.05 -4.61853e-014 2.02619 6.06165 -2.72315 -3.55271e-015 5.19 -7.10543e-015 -3.43708 6.44462 -0.788445 3.43 7.57505e-013 -1.12403e-012 1.46553 -18.1173 7.10189 3.07335e-012 -18.47 -8.50434e-014 1.21626 50.9969 2.11962 -2.6597e-012 -17.95 1.06869e-013 11.2408 -27.7438 2.78527 -3.43 -4.25818e-013 1.95148e-014 -2.86632 -34.5808 -3.04973 -2.95139e-013 -18.47 1.6608e-013 -1.96955 31.2432 -2.28851 -2.28626e-012 -17.95 1.06477e-013 2.36679 4.66664 -0.0972543 
-67.672 36.9289 23.6314 6.33949 -2.63412 96.3793 2.13163e-014 4.57 -1.82743e-013 -0.251312 11.158 -3.67285 1.06581e-014 6.57 -5.77316e-015 0.0110591 10.0883 -3.53081 1.06 4.19 1.76 7.65799 0.270528 -1.27433 5.81 6.02882e-012 -1.19011e-014 114.639 -45.6841 57.3645 -1.8468e-012 -12.08 -2.87786e-013 -8.97192 -5.08923 -29.0966 1.42109e-013 -9.82 1.28098e-011 5.2385 -9.62687 0.441006 -1.06 4.19 1.76 -1.83602 0.479243 3.08821 -6.06 4.25579e-012 -1.75076e-012 -114.725 -44.5742 -53.2407 1.51767e-012 -11.08 8.82257e-014 4.91437 -3.2287 21.9722 1.42109e-014 -9.82 9.76996e-015 -8.2649 -9.838 -0.712363 -8.57775e-012 4.05 -4.61853e-014 1.97575 5.9747 -3.05802 -3.55271e-015 5.19 -7.10543e-015 -3.44728 7.83777 -1.03776 3.43 7.45639e-013 -1.4487e-012 1.55431 -17.008 7.29811 3.07008e-012 -18.47 -1.11328e-013 1.23578 52.0201 1.52927 -2.62453e-012 -17.95 6.92872e-014 10.6407 -29.3374 2.79204 -3.43 -3.54696e-013 1.35689e-014 -3.73862 -34.3953 -3.66605 -3.03513e-013 -18.47 1.77286e-013 -1.60834 27.9566 -2.16382 -2.25298e-012 -17.95 5.68434e-014 3.50342 6.99721 -0.213874 
-66.9963 36.7083 23.599 6.8096 -2.49502 96.4982 2.13163e-014 4.57 -3.22631e-013 -0.0918809 10.8581 -3.68595 1.06581e-014 6.57 -5.77316e-015 0.159127 9.817 -3.52156 1.06 4.19 1.76 7.57597 0.269789 -1.33339 5.81 5.99949e-012 -4.37823e-014 113.025 -45.5798 56.0883 -1.79617e-012 -12.08 -3.36924e-013 -9.03945 -7.64085 -29.2237 1.42109e-013 -9.82 1.27691e-011 5.12303 -9.10779 0.409395 -1.06 4.19 1.76 -1.82966 0.480898 3.01821 -6.06 4.26402e-012 -1.75496e-012 -113.997 -44.6012 -52.4496 1.55202e-012 -11.08 9.44265e-014 4.96886 -3.36587 21.5341 1.42109e-014 -9.82 9.76996e-015 -7.88735 -9.60881 -0.664767 -8.58233e-012 4.05 -4.61853e-014 1.90605 6.12094 -3.32017 -3.55271e-015 5.19 -7.10543e-015 -3.29667 8.79024 -1.31518 3.43 7.11983e-013 -1.76383e-012 1.92024 -15.6665 7.70414 3.06665e-012 -18.47 -1.37246e-013 1.15826 52.8629 0.816473 -2.58918e-012 -17.95 2.90875e-014 9.86895 -30.9794 2.7418 -3.43 -2.79898e-013 2.17326e-014 -4.30393 -34.3586 -4.08838 -3.10596e-013 -18.47 1.86392e-013 -1.41025 25.6703 -2.64143 -2.219e-012 -17.95 -1.18128e-013 4.46403 9.18478 -0.35907 
-66.252 36.4922 23.5852 7.37157 -2.37362 96.6104 2.13163e-014 4.57 -1.71537e-013 0.137178 10.5748 -3.71919 1.06581e-014 6.57 -5.77316e-015 0.369108 9.56192 -3.52256 1.06 4.19 1.76 7.32432 0.268473 -1.50975 5.81 5.96959e-012 -1.97302e-014 111.047 -45.1942 53.8844 -1.74589e-012 -12.08 -3.83173e-013 -9.16174 -10.671 -29.1246 1.42109e-013 -9.82 1.27282e-011 4.89798 -8.50734 0.364226 -1.06 4.19 1.76 -1.74943 0.485254 3.02603 -6.06 4.27217e-012 -1.75914e-012 -113.093 -44.5947 -51.447 1.58593e-012 -11.08 6.26166e-014 5.05988 -3.65359 21.1233 1.42109e-014 -9.82 9.76996e-015 -7.38575 -9.32884 -0.603172 -8.58659e-012 4.05 -4.61853e-014 1.67585 6.43866 -3.46334 -3.55271e-015 5.19 -7.10543e-015 -3.06092 9.66283 -1.53154 3.43 6.59871e-013 -2.06953e-012 2.4134 -14.0341 8.18512 3.06305e-012 -18.47 -1.62773e-013 1.10296 53.5275 -0.0877494 -2.55364e-012 -17.95 -1.28164e-014 9.05687 -32.6286 2.65619 -3.43 -2.01682e-013 4.19489e-014 -4.88863 -34.3106 -4.65012 -3.16339e-013 -18.47 1.93348e-013 -1.17628 24.6238 -3.32426 -2.18431e-012 -17.95 -6.39488e-014 5.28223 11.1964 -0.518257 
-65.4243 36.2545 23.5905 7.97079 -2.24086 96.7757 2.13163e-014 4.57 5.44798e-014 0.350047 10.286 -3.77264 1.06581e-014 6.57 -5.77316e-015 0.569335 9.2997 -3.54813 1.06 4.19 1.76 7.05117 0.269285 -1.67703 5.81 5.93912e-012 4.89053e-014 109.138 -44.7744 50.8595 -1.69596e-012 -12.08 -4.26581e-013 -9.39324 -13.3847 -29.1152 1.42109e-013 -9.82 1.2687e-011 5.37734 -8.10332 0.380929 -1.06 4.19 1.76 -1.49429 0.499679 3.0144 -6.06 4.28024e-012 -1.76328e-012 -112.034 -44.4343 -50.1881 1.61941e-012 -11.08 1.30431e-014 5.23589 -4.27388 21.3242 1.42109e-014 -9.82 9.76996e-015 -7.24841 -9.26717 -0.58808 -8.59053e-012 4.05 -4.61853e-014 1.5833 6.60518 -3.55088 -3.55271e-015 5.19 -7.10543e-015 -3.09774 10.9331 -1.59225 3.43 5.92638e-013 -2.3659e-012 2.88847 -12.1663 8.53985 3.05928e-012 -18.47 -1.87881e-013 1.23915 54.0567 -0.984297 -2.51794e-012 -17.95 -5.55112e-014 7.78075 -34.3562 2.40762 -3.43 -1.20309e-013 7.21607e-014 -5.52725 -34.4451 -5.39391 -3.20693e-013 -18.47 1.98103e-013 -0.82843 25.1722 -4.0234 -2.14892e-012 -17.95 2.93099e-014 5.86318 12.7274 -0.654348 
-64.5167 36.0312 23.6157 8.57591 -2.0871 96.8619 2.13163e-014 4.57 1.55953e-013 0.534258 10.0288 -3.78441 1.06581e-014 6.57 -5.77316e-015 0.74545 9.06507 -3.54159 1.06 4.19 1.76 6.9119 0.26955 -1.77035 5.81 5.90808e-012 1.34281e-013 106.74 -44.14 47.6359 -1.64638e-012 -12.08 -4.67193e-013 -9.61045 -16.5871 -29.3165 1.42109e-013 -9.82 1.26457e-011 5.67836 -7.64089 0.379664 -1.06 4.19 1.76 -1.22262 0.515072 3.00015 -6.06 4.28823e-012 -1.76738e-012 -110.176 -43.8012 -48.2944 1.65244e-012 -11.08 -5.21738e-014 5.42349 -6.59655 21.5983 1.42109e-014 -9.82 9.76996e-015 -6.95714 -8.60236 -0.524206 -8.59415e-012 4.05 -4.61853e-014 1.63361 6.61235 -3.55789 -3.55271e-015 5.19 -7.10543e-015 -3.41582 12.2713 -1.44848 3.43 5.13621e-013 -2.65305e-012 3.33774 -9.94564 8.88682 3.05535e-012 -18.47 -2.12547e-013 1.38982 54.212 -1.77066 -2.48209e-012 -17.95 -9.80834e-014 6.30166 -36.0592 2.05296 -3.43 -3.60369e-014 1.10311e-013 -6.15186 -34.8749 -6.18108 -3.23607e-013 -18.47 2.00606e-013 -0.41538 27.4436 -4.259 -2.11281e-012 -17.95 -1.5016e-013 6.08077 13.2546 -0.704306 
-63.5547 35.8441 23.6726 9.14872 -1.93281 96.7901 2.13163e-014 4.57 2.14956e-013 0.72865 9.7973 -3.76596 1.06581e-014 6.57 -5.77316e-015 0.926834 8.85598 -3.50211 1.06 4.19 1.76 6.76923 0.270954 -1.85197 5.81 5.87646e-012 2.16549e-013 104.055 -43.4111 44.7504 -1.59716e-012 -12.08 -5.05057e-013 -9.8017 -19.5572 -29.6849 1.42109e-013 -9.82 1.26042e-011 5.74162 -7.13846 0.358366 -1.06 4.19 1.76 -1.1201 0.519912 3.07226 -6.06 4.29613e-012 -1.77146e-012 -107.549 -42.8954 -46.0099 1.68504e-012 -11.08 -1.02603e-013 5.60479 -9.90406 21.9439 1.42109e-014 -9.82 9.76996e-015 -6.56197 -7.74494 -0.444648 -8.59745e-012 4.05 -4.61853e-014 1.59284 6.6722 -3.54564 -3.55271e-015 5.19 -7.10543e-015 -3.5758 13.2297 -1.33164 3.43 4.26153e-013 -2.93106e-012 3.80622 -7.47516 9.28456 3.05124e-012 -18.47 -2.36742e-013 1.50437 53.9944 -2.60188 -2.44608e-012 -17.95 -1.3962e-013 5.08056 -37.6492 1.73391 -3.43 1.01015e-013 1.54343e-013 -6.65064 -35.4348 -7.09433 -3.25033e-013 -18.47 2.00807e-013 -0.0239282 30.963 -5.20703 -2.07599e-012 -17.95 -2.16084e-013 5.18975 11.7259 -0.535757 
-62.5393 35.6662 23.7648 9.5057 -1.76776 96.7382 2.13163e-014 4.57 2.37973e-013 0.862498 9.43179 -3.75684 1.06581e-014 6.57 -5.77316e-015 1.04701 8.52413 -3.4759 1.06 4.19 1.76 6.73877 0.269491 -1.89788 5.81 5.84427e-012 2.66398e-013 101.242 -42.6906 41.5939 -1.54831e-012 -12.08 -5.40221e-013 -10.0315 -22.0847 -29.705 1.42109e-013 -9.82 1.25624e-011 5.72341 -6.86387 0.343512 -1.06 4.19 1.76 -0.814783 0.536966 3.07264 -6.06 4.30396e-012 -1.77551e-012 -105.197 -42.0991 -43.6704 1.71721e-012 -11.08 -1.36351e-013 5.87144 -12.6576 22.518 1.42109e-014 -9.82 9.76996e-015 -6.23147 -7.08365 -0.386103 -8.60043e-012 4.05 -4.61853e-014 1.6369 6.85262 -3.56641 -3.55271e-015 5.19 -7.10543e-015 -3.70295 14.0378 -1.20422 3.43 3.3357e-013 -3.20005e-012 4.19566 -4.96619 9.5264 3.04697e-012 -18.47 -2.60442e-013 1.77238 53.4015 -3.46766 -2.40995e-012 -17.95 -1.79207e-013 3.5833 -39.1284 1.27335 -3.43 9.54792e-014 2.02199e-013 -7.24496 -36.3105 -8.36789 -3.2492e-013 -18.47 1.98654e-013 0.656196 35.6763 -6.69087 -2.03846e-012 -17.95 -2.62179e-013 3.40722 8.35729 -0.252491 
-61.484 35.462 23.883 9.6802 -1.73432 96.8763 2.13163e-014 4.57 2.31491e-013 1.10916 9.05249 -3.88696 1.06581e-014 6.57 -5.77316e-015 1.28178 8.17841 -3.56614 1.06 4.19 1.76 6.75334 0.272271 -1.84212 5.81 5.81149e-012 2.45137e-013 98.7963 -41.9236 38.7091 -1.49984e-012 -12.08 -5.72731e-013 -10.2453 -24.1424 -29.7534 1.42109e-013 -9.82 1.25205e-011 5.5524 -6.6302 0.321965 -1.06 4.19 1.76 -0.517185 0.553781 3.08481 -6.06 4.31171e-012 -1.77953e-012 -103.652 -41.3685 -41.6935 1.74894e-012 -11.08 -1.68873e-013 6.17406 -14.5386 23.0866 1.42109e-014 -9.82 9.76996e-015 -5.92803 -6.68031 -0.346189 -8.60309e-012 4.05 -4.61853e-014 1.7072 6.84433 -3.55026 -3.55271e-015 5.19 -7.10543e-015 -3.87111 14.5077 -1.03187 3.43 2.39208e-013 -3.46012e-012 4.59832 -2.55821 9.54743 3.04253e-012 -18.47 -2.83621e-013 2.33083 52.6714 -4.31525 -2.37368e-012 -17.95 -2.15932e-013 1.64078 -40.6113 0.606111 -3.43 -8.77816e-014 2.51823e-013 -7.97979 -37.4602 -9.80191 -3.23218e-013 -18.47 1.94096e-013 1.43028 41.0463 -7.53823 -2.00021e-012 -17.95 -3.05127e-013 1.83501 4.98718 -0.0777375 
-60.4311 35.2065 24.0404 9.77255 -1.71896 97.1785 2.13163e-014 4.57 2.01998e-013 1.39813 8.79905 -4.16017 1.06581e-014 6.57 -5.77316e-015 1.56229 7.94481 -3.78819 1.06 4.19 1.76 6.56686 0.28676 -1.743 5.81 5.77813e-012 7.28306e-014 97.321 -41.2584 36.6176 -1.45174e-012 -12.08 -6.02635e-013 -10.3903 -25.1315 -29.9068 1.42109e-013 -9.82 1.24784e-011 5.52228 -6.56318 0.316894 -1.06 4.19 1.76 -0.635224 0.546924 3.10611 -6.06 4.31937e-012 -1.78351e-012 -102.63 -40.9074 -40.1178 1.78025e-012 -11.08 -2.00187e-013 6.43138 -15.3671 23.5948 1.42109e-014 -9.82 9.76996e-015 -5.70907 -6.68425 -0.333651 -8.60541e-012 4.05 -4.61853e-014 1.66362 6.8266 -3.54512 -3.55271e-015 5.19 -7.10543e-015 -3.71342 14.0822 -1.06767 3.43 1.46401e-013 -3.71136e-012 5.05369 -0.445366 9.45363 3.03792e-012 -18.47 -3.06253e-013 3.02642 52.3208 -5.40354 -2.33731e-012 -17.95 -2.4888e-013 0.286067 -42.2765 0.111369 -3.43 -1.13506e-013 3.01158e-013 -8.57935 -38.4659 -11.0426 -3.19879e-013 -18.47 1.87084e-013 1.99857 45.9573 -8.62622 -1.96123e-012 -17.95 -3.44963e-013 0.353989 1.91801 -0.00828991 
